<svg xmlns="http://www.w3.org/2000/svg" xmlns:xlink="http://www.w3.org/1999/xlink" contentStyleType="text/css" data-diagram-type="DESCRIPTION" height="1734.375px" preserveAspectRatio="none" style="width:10524px;height:1734px;background:#FFFFFF;" version="1.1" viewBox="0 0 10524 1734" width="10524.375px" zoomAndPan="magnify"><title>&#24635;&#20307;&#20851;&#31995;&#65306;Web &#21069;&#21518;&#31471; -&gt; Quartus -&gt; FPGA</title><defs/><g><g class="title" data-source-line="1"><text fill="#000000" font-family="'Microsoft YaHei'" font-size="71.25" font-weight="bold" lengthAdjust="spacing" textLength="1493.7451" x="4502.1899" y="105.39">&#24635;&#20307;&#20851;&#31995;&#65306;Web &#21069;&#21518;&#31471; -&gt; Quartus -&gt; FPGA</text></g><!--cluster PC--><g class="cluster" data-entity="PC" data-source-line="18" data-uid="ent0003" id="cluster_PC"><polygon fill="none" points="755.625,1149.4187,774.375,1130.6687,1374.375,1130.6687,1374.375,1573.1687,1355.625,1591.9187,755.625,1591.9187,755.625,1149.4187" style="stroke:#181818;stroke-width:1.875;"/><line style="stroke:#181818;stroke-width:1.875;" x1="1355.625" x2="1374.375" y1="1149.4187" y2="1130.6687"/><line style="stroke:#181818;stroke-width:1.875;" x1="755.625" x2="1355.625" y1="1149.4187" y2="1149.4187"/><line style="stroke:#181818;stroke-width:1.875;" x1="1355.625" x2="1355.625" y1="1149.4187" y2="1591.9187"/><text fill="#000000" font-family="'Microsoft YaHei'" font-size="48.75" font-weight="bold" lengthAdjust="spacing" textLength="263.1976" x="925.9012" y="1217.8764">PC / &#27983;&#35272;&#22120;</text></g><!--cluster BE--><g class="cluster" data-entity="BE" data-source-line="21" data-uid="ent0005" id="cluster_BE"><rect fill="#E3F2FD" height="1021.875" rx="11.25" ry="11.25" style="stroke:#181818;stroke-width:1.875;" width="2186.25" x="1710" y="232.5437"/><text fill="#000000" font-family="'Microsoft YaHei'" font-size="48.75" font-weight="bold" lengthAdjust="spacing" textLength="325.3253" x="2640.4623" y="299.1264">&#21518;&#31471; (Python)</text><text fill="#000000" font-family="'Microsoft YaHei'" font-size="48.75" font-weight="bold" lengthAdjust="spacing" textLength="656.2207" x="2475.0146" y="363.4678">server.py (HTTP + helpers)</text></g><!--cluster QUARTUS--><g class="cluster" data-entity="QUARTUS" data-source-line="28" data-uid="ent0011" id="cluster_QUARTUS"><polygon fill="#FAFAFF" points="6279.375,875.6687,6298.125,856.9187,7908.75,856.9187,7908.75,1239.4187,7890,1258.1687,6279.375,1258.1687,6279.375,875.6687" style="stroke:#181818;stroke-width:1.875;"/><line style="stroke:#181818;stroke-width:1.875;" x1="7890" x2="7908.75" y1="875.6687" y2="856.9187"/><line style="stroke:#181818;stroke-width:1.875;" x1="6279.375" x2="7890" y1="875.6687" y2="875.6687"/><line style="stroke:#181818;stroke-width:1.875;" x1="7890" x2="7890" y1="875.6687" y2="1258.1687"/><text fill="#000000" font-family="'Microsoft YaHei'" font-size="48.75" font-weight="bold" lengthAdjust="spacing" textLength="354.0326" x="6909.5462" y="944.1264">Quartus Prime</text></g><!--cluster FPGA--><g class="cluster" data-entity="FPGA" data-source-line="32" data-uid="ent0014" id="cluster_FPGA"><polygon fill="#FFFDF4" points="8311.875,354.4187,8330.625,335.6687,10492.5,335.6687,10492.5,1096.9187,10473.75,1115.6687,8311.875,1115.6687,8311.875,354.4187" style="stroke:#181818;stroke-width:1.875;"/><line style="stroke:#181818;stroke-width:1.875;" x1="10473.75" x2="10492.5" y1="354.4187" y2="335.6687"/><line style="stroke:#181818;stroke-width:1.875;" x1="8311.875" x2="10473.75" y1="354.4187" y2="354.4187"/><line style="stroke:#181818;stroke-width:1.875;" x1="10473.75" x2="10473.75" y1="354.4187" y2="1115.6687"/><text fill="#000000" font-family="'Microsoft YaHei'" font-size="48.75" font-weight="bold" lengthAdjust="spacing" textLength="355.7227" x="9216.8262" y="422.8764">DE2-115 FPGA</text><text fill="#000000" font-family="'Microsoft YaHei'" font-size="48.75" font-weight="bold" lengthAdjust="spacing" textLength="338.5364" x="9225.4193" y="487.2178">(Cyclone IV E)</text></g><!--entity FE--><g class="entity" data-entity="FE" data-source-line="19" data-uid="ent0004" id="entity_FE"><rect fill="#FFF8E1" height="253.0243" rx="11.25" ry="11.25" style="stroke:#181818;stroke-width:0.9375;" width="529.552" x="800.625" y="1277.8562"/><text fill="#000000" font-family="'Microsoft YaHei'" font-size="48.75" lengthAdjust="spacing" textLength="252.8906" x="830.625" y="1359.4389">&#21069;&#31471; (Web)</text><text fill="#000000" font-family="'Microsoft YaHei'" font-size="48.75" lengthAdjust="spacing" textLength="469.552" x="830.625" y="1423.7803">frontend/index.html</text><text fill="#000000" font-family="'Microsoft YaHei'" font-size="48.75" lengthAdjust="spacing" textLength="360.9595" x="830.625" y="1488.1217">frontend/app.js</text></g><!--entity SVR--><g class="entity" data-entity="SVR" data-source-line="22" data-uid="ent0006" id="entity_SVR"><rect fill="#E3F2FD" height="510.39" rx="11.25" ry="11.25" style="stroke:#181818;stroke-width:0.9375;" width="954.5435" x="1740" y="418.1687"/><text fill="#000000" font-family="'Microsoft YaHei'" font-size="48.75" lengthAdjust="spacing" textLength="92.9297" x="1770" y="499.7514">SVR</text><text fill="#000000" font-family="'Microsoft YaHei'" font-size="48.75" lengthAdjust="spacing" textLength="241.9409" x="1770" y="564.0928">(server.py)</text><text fill="#000000" font-family="'Microsoft YaHei'" font-size="48.75" lengthAdjust="spacing" textLength="659.2914" x="1770" y="628.4342">POST /chart_engine/process</text><text fill="#000000" font-family="'Microsoft YaHei'" font-size="48.75" lengthAdjust="spacing" textLength="894.5435" x="1770" y="692.7757">POST /chart_engine/generate_random</text><text fill="#000000" font-family="'Microsoft YaHei'" font-size="48.75" lengthAdjust="spacing" textLength="581.2628" x="1770" y="757.1171">POST /chart_analysis/run</text><text fill="#000000" font-family="'Microsoft YaHei'" font-size="48.75" lengthAdjust="spacing" textLength="654.9591" x="1770" y="821.4585">POST /music_sync/play|stop</text><text fill="#000000" font-family="'Microsoft YaHei'" font-size="48.75" lengthAdjust="spacing" textLength="479.0973" x="1770" y="885.8">POST /quartus/open</text></g><!--entity ENGINE--><g class="entity" data-entity="ENGINE" data-source-line="23" data-uid="ent0007" id="entity_ENGINE"><rect fill="#F3E5F5" height="317.3657" rx="11.25" ry="11.25" style="stroke:#181818;stroke-width:0.9375;" width="748.689" x="3096.5625" y="713.4812"/><text fill="#000000" font-family="'Microsoft YaHei'" font-size="48.75" lengthAdjust="spacing" textLength="369.6954" x="3126.5625" y="795.0639">CHART_ENGINE</text><text fill="#000000" font-family="'Microsoft YaHei'" font-size="48.75" lengthAdjust="spacing" textLength="688.689" x="3126.5625" y="859.4053">chart_engine/chart_engine.py</text><text fill="#000000" font-family="'Microsoft YaHei'" font-size="48.75" lengthAdjust="spacing" textLength="465.5292" x="3126.5625" y="923.7467">(&#29983;&#25104; verilog/ROM.v</text><text fill="#000000" font-family="'Microsoft YaHei'" font-size="48.75" lengthAdjust="spacing" textLength="433.0847" x="3126.5625" y="988.0882">+ &#38656;&#35201;&#26102;&#26356;&#26032; BPM)</text></g><!--entity ANALYSIS--><g class="entity" data-entity="ANALYSIS" data-source-line="24" data-uid="ent0008" id="entity_ANALYSIS"><rect fill="#E8F5E9" height="253.0243" rx="11.25" ry="11.25" style="stroke:#181818;stroke-width:0.9375;" width="791.2024" x="3075" y="419.1062"/><text fill="#000000" font-family="'Microsoft YaHei'" font-size="48.75" lengthAdjust="spacing" textLength="419.5166" x="3105" y="500.6889">CHART_ANALYSIS</text><text fill="#000000" font-family="'Microsoft YaHei'" font-size="48.75" lengthAdjust="spacing" textLength="731.2024" x="3105" y="565.0303">chart_analysis/chart_analysis.py</text><text fill="#000000" font-family="'Microsoft YaHei'" font-size="48.75" lengthAdjust="spacing" textLength="450.9851" x="3105" y="629.3717">(&#36755;&#20986; *.png / *.json)</text></g><!--entity MUSIC--><g class="entity" data-entity="MUSIC" data-source-line="25" data-uid="ent0009" id="entity_MUSIC"><rect fill="#E0F7FA" height="253.0243" rx="11.25" ry="11.25" style="stroke:#181818;stroke-width:0.9375;" width="553.0463" x="1940.625" y="970.3562"/><text fill="#000000" font-family="'Microsoft YaHei'" font-size="48.75" lengthAdjust="spacing" textLength="310.7574" x="1970.625" y="1051.9389">MUSIC_SYNC</text><text fill="#000000" font-family="'Microsoft YaHei'" font-size="48.75" lengthAdjust="spacing" textLength="493.0463" x="1970.625" y="1116.2803">music_sync/player.py</text><text fill="#000000" font-family="'Microsoft YaHei'" font-size="48.75" lengthAdjust="spacing" textLength="374.0039" x="1970.625" y="1180.6217">(PC &#20391;&#38899;&#39057;/&#33410;&#25293;)</text></g><!--entity BUILD--><g class="entity" data-entity="BUILD" data-source-line="29" data-uid="ent0012" id="entity_BUILD"><rect fill="#FAFAFF" height="124.3414" rx="11.25" ry="11.25" style="stroke:#181818;stroke-width:0.9375;" width="707.4847" x="6324.375" y="1038.7937"/><text fill="#000000" font-family="'Microsoft YaHei'" font-size="48.75" lengthAdjust="spacing" textLength="647.4847" x="6354.375" y="1120.3764">&#32534;&#35793;/&#32508;&#21512;/&#24067;&#23616;&#24067;&#32447;/&#26102;&#24207;&#20998;&#26512;</text></g><!--entity SOF--><g class="entity" data-entity="SOF" data-source-line="30" data-uid="ent0013" id="entity_SOF"><rect fill="#F1F1F1" height="194.3079" rx="11.25" ry="11.25" style="stroke:#181818;stroke-width:0.9375;" width="571.4154" x="7291.875" y="1003.1687"/><polygon fill="#F1F1F1" points="7831.4154,1012.5437,7831.4154,1038.7937,7853.9154,1038.7937,7853.9154,1023.7937,7842.6654,1012.5437,7831.4154,1012.5437" style="stroke:#181818;stroke-width:0.9375;"/><line style="stroke:#181818;stroke-width:0.9375;" x1="7842.6654" x2="7842.6654" y1="1012.5437" y2="1023.7937"/><line style="stroke:#181818;stroke-width:0.9375;" x1="7853.9154" x2="7842.6654" y1="1023.7937" y2="1023.7937"/><text fill="#000000" font-family="'Microsoft YaHei'" font-size="48.75" lengthAdjust="spacing" textLength="492.6654" x="7321.875" y="1090.3764">quartus/output_files/</text><text fill="#000000" font-family="'Microsoft YaHei'" font-size="48.75" lengthAdjust="spacing" textLength="326.7535" x="7321.875" y="1154.7178">MuseDash.sof</text></g><!--entity HW--><g class="entity" data-entity="HW" data-source-line="33" data-uid="ent0015" id="entity_HW"><rect fill="#FFFDF4" height="510.39" rx="11.25" ry="11.25" style="stroke:#181818;stroke-width:0.9375;" width="504.8676" x="9200.625" y="545.6687"/><text fill="#000000" font-family="'Microsoft YaHei'" font-size="48.75" lengthAdjust="spacing" textLength="381.6211" x="9230.625" y="627.2514">MuseDash (Top)</text><text fill="#000000" font-family="'Microsoft YaHei'" font-size="48.75" lengthAdjust="spacing" textLength="444.8676" x="9230.625" y="691.5928">Address_Generator</text><text fill="#000000" font-family="'Microsoft YaHei'" font-size="48.75" lengthAdjust="spacing" textLength="155.1288" x="9230.625" y="755.9342">Queue</text><text fill="#000000" font-family="'Microsoft YaHei'" font-size="48.75" lengthAdjust="spacing" textLength="409.5667" x="9230.625" y="820.2757">Judgement (FSM)</text><text fill="#000000" font-family="'Microsoft YaHei'" font-size="48.75" lengthAdjust="spacing" textLength="443.963" x="9230.625" y="884.6171">Accumulator (BCD)</text><text fill="#000000" font-family="'Microsoft YaHei'" font-size="48.75" lengthAdjust="spacing" textLength="193.2385" x="9230.625" y="948.9585">TextLCD</text><text fill="#000000" font-family="'Microsoft YaHei'" font-size="48.75" lengthAdjust="spacing" textLength="314.2328" x="9230.625" y="1013.3">7-Seg Drivers</text></g><!--entity BTN--><g class="entity" data-entity="BTN" data-source-line="34" data-uid="ent0016" id="entity_BTN"><rect fill="#FFFDF4" height="188.6829" rx="11.25" ry="11.25" style="stroke:#181818;stroke-width:0.9375;" width="679.5868" x="8356.875" y="705.9812"/><text fill="#000000" font-family="'Microsoft YaHei'" font-size="48.75" lengthAdjust="spacing" textLength="97.5" x="8386.875" y="787.5639">&#25353;&#38190;</text><text fill="#000000" font-family="'Microsoft YaHei'" font-size="48.75" lengthAdjust="spacing" textLength="619.5868" x="8386.875" y="851.9053">(clickup/clickdown/restart)</text></g><!--entity LCD--><g class="entity" data-entity="LCD" data-source-line="35" data-uid="ent0017" id="entity_LCD"><rect fill="#FFFDF4" height="124.3414" rx="11.25" ry="11.25" style="stroke:#181818;stroke-width:0.9375;" width="382.0166" x="10065" y="819.4187"/><text fill="#000000" font-family="'Microsoft YaHei'" font-size="48.75" lengthAdjust="spacing" textLength="322.0166" x="10095" y="901.0014">TextLCD 1602</text></g><!--entity SEG--><g class="entity" data-entity="SEG" data-source-line="36" data-uid="ent0018" id="entity_SEG"><rect fill="#FFFDF4" height="124.3414" rx="11.25" ry="11.25" style="stroke:#181818;stroke-width:0.9375;" width="196.6571" x="10157.8125" y="654.4187"/><text fill="#000000" font-family="'Microsoft YaHei'" font-size="48.75" lengthAdjust="spacing" textLength="136.6571" x="10187.8125" y="736.0014">7-Seg</text></g><!--entity USER--><g class="entity" data-entity="USER" data-source-line="17" data-uid="ent0002" id="entity_USER"><ellipse cx="159.8209" cy="1460.6687" fill="#F1F1F1" rx="15" ry="15" style="stroke:#181818;stroke-width:0.9375;"/><path d="M159.8209,1475.6687 L159.8209,1526.2937 M135.4459,1490.6687 L184.1959,1490.6687 M159.8209,1526.2937 L135.4459,1554.4187 M159.8209,1526.2937 L184.1959,1554.4187" fill="none" style="stroke:#181818;stroke-width:0.9375;"/><text fill="#000000" font-family="'Microsoft YaHei'" font-size="48.75" lengthAdjust="spacing" textLength="97.5" x="11.25" y="1620.0639">&#29992;&#25143;</text><text fill="#000000" font-family="'Microsoft YaHei'" font-size="48.75" lengthAdjust="spacing" textLength="297.1417" x="11.25" y="1684.4053">(&#24320;&#21457;&#32773;/&#29609;&#23478;)</text></g><!--entity FS--><g class="entity" data-entity="FS" data-source-line="27" data-uid="ent0010" id="entity_FS"><path d="M4647.1875,919.7312 C4647.1875,900.9812 5125.3162,900.9812 5125.3162,900.9812 C5125.3162,900.9812 5603.4448,900.9812 5603.4448,919.7312 L5603.4448,1280.8134 C5603.4448,1299.5634 5125.3162,1299.5634 5125.3162,1299.5634 C5125.3162,1299.5634 4647.1875,1299.5634 4647.1875,1280.8134 L4647.1875,919.7312" fill="#F5F7FF" style="stroke:#181818;stroke-width:0.9375;"/><path d="M4647.1875,919.7312 C4647.1875,938.4812 5125.3162,938.4812 5125.3162,938.4812 C5125.3162,938.4812 5603.4448,938.4812 5603.4448,919.7312" fill="none" style="stroke:#181818;stroke-width:0.9375;"/><text fill="#000000" font-family="'Microsoft YaHei'" font-size="48.75" lengthAdjust="spacing" textLength="597.9968" x="4677.1875" y="1008.8139">&#39033;&#30446;&#25991;&#20214;&#31995;&#32479; (Workspace)</text><text fill="#000000" font-family="'Microsoft YaHei'" font-size="48.75" lengthAdjust="spacing" textLength="896.2573" x="4677.1875" y="1073.1553">- charts/&lt;name&gt;/&lt;name&gt;.txt (+.mp3)</text><text fill="#000000" font-family="'Microsoft YaHei'" font-size="48.75" lengthAdjust="spacing" textLength="601.3055" x="4677.1875" y="1137.4967">- chart_analysis/outputs/*</text><text fill="#000000" font-family="'Microsoft YaHei'" font-size="48.75" lengthAdjust="spacing" textLength="678.1677" x="4677.1875" y="1201.8382">- verilog/*.v + verilog/ROM.v</text><text fill="#000000" font-family="'Microsoft YaHei'" font-size="48.75" lengthAdjust="spacing" textLength="672.6215" x="4677.1875" y="1266.1796">- quartus/MuseDash.qpf/.qsf</text></g><g class="entity" data-entity="GMN43" data-source-line="61" data-uid="ent0044" id="entity_GMN43"><path d="M4421.25,1352.8562 L4421.25,1500.2891 A11.25,11.25 0 0 0 4432.5,1511.5391 L5818.5223,1511.5391 A11.25,11.25 0 0 0 5829.7723,1500.2891 L5829.7723,1360.3562 L5811.0223,1341.6062 L5132.8125,1341.6062 L5125.3125,1300.6 L5117.8125,1341.6062 L4432.5,1341.6062 A11.25,11.25 0 0 0 4421.25,1352.8562" fill="#FEFFDD" style="stroke:#181818;stroke-width:0.9375;"/><path d="M5811.0223,1341.6062 L5811.0223,1354.7312 A5.625,5.625 0 0 0 5816.6473,1360.3562 L5829.7723,1360.3562 L5811.0223,1341.6062" fill="#FEFFDD" style="stroke:#181818;stroke-width:0.9375;"/><text fill="#000000" font-family="'Microsoft YaHei'" font-size="48.75" lengthAdjust="spacing" textLength="889.5447" x="4443.75" y="1413.8139">ROM.v &#20250;&#20316;&#20026;&#21487;&#32508;&#21512;&#30340;&#8220;&#24120;&#37327; ROM&#8221;&#65306;</text><text fill="#000000" font-family="'Microsoft YaHei'" font-size="48.75" lengthAdjust="spacing" textLength="1346.6473" x="4443.75" y="1478.1553">chart_engine &#29983;&#25104;&#30340;&#35889;&#38754;&#25968;&#25454;&#20250;&#34987; FPGA &#22312;&#36816;&#34892;&#26102;&#36880;&#25293;&#35835;&#21462;&#12290;</text></g><!--reverse link USER to PC--><!--link USER to PC--><!--link USER to FE--><g class="link" data-entity-1="USER" data-entity-2="FE" data-source-line="40" data-uid="lnk22" id="link_USER_FE"><path d="M318.8063,1529.3687 C325.7438,1527.625 332.625,1525.975 339.375,1524.4187 C490.8375,1489.675 651.1809,1462.4703 789.1809,1441.7515" fill="none" id="USER-to-FE" style="stroke:#181818;stroke-width:4.6875;"/><polygon fill="#181818" points="800.3063,1440.0812,782.5047,1435.1698,791.0352,1441.4731,784.7318,1450.0036,800.3063,1440.0812" style="stroke:#181818;stroke-width:4.6875;"/><text fill="#000000" font-family="'Microsoft YaHei'" font-size="48.75" lengthAdjust="spacing" textLength="162.6508" x="444.1205" y="1367.8764">&#25171;&#24320; UI</text><text fill="#000000" font-family="'Microsoft YaHei'" font-size="48.75" lengthAdjust="spacing" textLength="345.8917" x="352.5" y="1432.2178">(&#36873;&#25321;&#27169;&#24335;/&#26354;&#30446;)</text></g><!--link FE to SVR--><!--link FE to SVR--><g class="link" data-entity-1="FE" data-entity-2="SVR" data-source-line="46" data-uid="lnk28" id="link_FE_SVR"><path d="M1329.4688,1411.9 C1454.8687,1400.5375 1595.6625,1363.0562 1680,1261.9187 C1702.3125,1235.1625 1676.325,978.1937 1695,948.7937 C1708.0125,928.3 1715.3836,917.4296 1732.0336,899.7108" fill="none" id="FE-to-SVR-1" style="stroke:#181818;stroke-width:4.6875;"/><polygon fill="#181818" points="1739.7375,891.5125,1722.7161,898.6741,1733.3176,898.3444,1733.6473,908.9459,1739.7375,891.5125" style="stroke:#181818;stroke-width:4.6875;"/><text fill="#000000" font-family="'Microsoft YaHei'" font-size="48.75" lengthAdjust="spacing" textLength="235.3473" x="1432.5" y="1172.8764">HTTP &#35831;&#27714;</text><text fill="#000000" font-family="'Microsoft YaHei'" font-size="48.75" lengthAdjust="spacing" textLength="227.5635" x="1436.3919" y="1237.2178">(&#35843;&#29992;&#25509;&#21475;)</text></g><!--link SVR to FS--><!--link SVR to FS--><g class="link" data-entity-1="SVR" data-entity-2="FS" data-source-line="52" data-uid="lnk35" id="link_SVR_FS"><path d="M2661.1313,928.225 C2672.3625,935.1062 2683.4438,941.9687 2694.375,948.7937 C2867.1188,1056.5875 2880.1875,1144.5625 3075,1203.7937 C3357.7687,1289.7625 4123.9492,1222.1651 4635.5805,1163.1026" fill="none" id="SVR-to-FS-1" style="stroke:#181818;stroke-width:4.6875;"/><polygon fill="#181818" points="4646.7563,1161.8125,4629.1325,1156.2971,4637.4431,1162.8876,4630.8527,1171.1982,4646.7563,1161.8125" style="stroke:#181818;stroke-width:4.6875;"/><text fill="#000000" font-family="'Microsoft YaHei'" font-size="48.75" lengthAdjust="spacing" textLength="498.902" x="3221.25" y="1114.7514">&#25171;&#24320; quartus &#24037;&#31243;&#25991;&#20214;</text><text fill="#000000" font-family="'Microsoft YaHei'" font-size="48.75" lengthAdjust="spacing" textLength="227.5635" x="3356.9193" y="1179.0928">(&#36741;&#21161;&#25353;&#38062;)</text></g><!--link SVR to QUARTUS--><!--link FS to QUARTUS--><!--link PC to QUARTUS--><!--link SVR to ANALYSIS--><g class="link" data-entity-1="SVR" data-entity-2="ANALYSIS" data-source-line="47" data-uid="lnk29" id="link_SVR_ANALYSIS"><path d="M2695.0875,624.6062 C2820.45,611.8187 2943.1142,599.2906 3063.6205,587.0093" fill="none" id="SVR-to-ANALYSIS" style="stroke:#181818;stroke-width:4.6875;"/><polygon fill="#181818" points="3074.8125,585.8687,3057.264,580.1183,3065.4858,586.8192,3058.7849,595.041,3074.8125,585.8687" style="stroke:#181818;stroke-width:4.6875;"/><text fill="#000000" font-family="'Microsoft YaHei'" font-size="48.75" lengthAdjust="spacing" textLength="195" x="2787.1875" y="565.3764">&#36816;&#34892;&#20998;&#26512;</text></g><!--link ANALYSIS to FS--><g class="link" data-entity-1="ANALYSIS" data-entity-2="FS" data-source-line="48" data-uid="lnk30" id="link_ANALYSIS_FS"><path d="M3866.7188,664.6187 C4032.2063,715.7125 4226.3438,777.175 4400.625,836.2937 C4480.5,863.3875 4554.3485,889.3832 4636.2297,918.9145" fill="none" id="ANALYSIS-to-FS" style="stroke:#181818;stroke-width:4.6875;"/><polygon fill="#181818" points="4646.8125,922.7312,4633.4829,909.9509,4637.9935,919.5506,4628.3938,924.0612,4646.8125,922.7312" style="stroke:#181818;stroke-width:4.6875;"/><text fill="#000000" font-family="'Microsoft YaHei'" font-size="48.75" lengthAdjust="spacing" textLength="336.037" x="3996.2439" y="601.0014">&#20889;&#20837; outputs/*</text><text fill="#000000" font-family="'Microsoft YaHei'" font-size="48.75" lengthAdjust="spacing" textLength="410.3998" x="3959.0625" y="665.3428">(&#22270;&#34920; + summary)</text></g><!--reverse link FE to FS--><g class="link" data-entity-1="FE" data-entity-2="FS" data-source-line="49" data-uid="lnk32" id="link_FE_FS"><path d="M1341.28,1421.552 C1666.4987,1440.977 2225.6438,1471.4875 2715,1483.1687 C3468.0375,1501.15 3663,1459.5625 4400.625,1306.9187 C4480.8188,1290.325 4565.1188,1269.475 4646.7,1247.4437" fill="none" id="FE-backto-FS" style="stroke:#181818;stroke-width:4.6875;"/><polygon fill="#181818" points="1330.05,1420.8812,1346.4478,1429.374,1339.4083,1421.4402,1347.3421,1414.4007,1330.05,1420.8812" style="stroke:#181818;stroke-width:4.6875;"/><text fill="#000000" font-family="'Microsoft YaHei'" font-size="48.75" lengthAdjust="spacing" textLength="162.6508" x="2804.1998" y="1394.1264">UI &#39044;&#35272;</text><text fill="#000000" font-family="'Microsoft YaHei'" font-size="48.75" lengthAdjust="spacing" textLength="256.6754" x="2757.1875" y="1458.4678">(outputs/*)</text></g><!--link SVR to ENGINE--><g class="link" data-entity-1="SVR" data-entity-2="ENGINE" data-source-line="50" data-uid="lnk33" id="link_SVR_ENGINE"><path d="M2695.0875,748.8812 C2828.025,770.0125 2959.4147,790.9141 3085.4334,810.9578" fill="none" id="SVR-to-ENGINE" style="stroke:#181818;stroke-width:4.6875;"/><polygon fill="#181818" points="3096.5438,812.725,3081.0563,802.6674,3087.2851,811.2524,3078.7001,817.4812,3096.5438,812.725" style="stroke:#181818;stroke-width:4.6875;"/><text fill="#000000" font-family="'Microsoft YaHei'" font-size="48.75" lengthAdjust="spacing" textLength="313.3282" x="2728.125" y="730.3764">&#22788;&#29702;/&#29983;&#25104;&#35889;&#38754;</text></g><!--link ENGINE to FS--><g class="link" data-entity-1="ENGINE" data-entity-2="FS" data-source-line="51" data-uid="lnk34" id="link_ENGINE_FS"><path d="M3845.0625,923.5375 C4082.3438,956.425 4380.8002,997.7622 4635.8752,1033.1059" fill="none" id="ENGINE-to-FS" style="stroke:#181818;stroke-width:4.6875;"/><polygon fill="#181818" points="4647.0187,1034.65,4631.3328,1024.9048,4637.7325,1033.3632,4629.2741,1039.7629,4647.0187,1034.65" style="stroke:#181818;stroke-width:4.6875;"/><text fill="#000000" font-family="'Microsoft YaHei'" font-size="48.75" lengthAdjust="spacing" textLength="449.2474" x="3939.375" y="910.3764">&#20889;&#20837; verilog/ROM.v</text></g><!--link USER to QUARTUS--><g class="link" data-entity-1="USER" data-entity-2="QUARTUS" data-source-line="53" data-uid="lnk36" id="link_USER_QUARTUS"><path d="M319.2188,1611.3625 C498.6,1647.4 800.4563,1698.7937 1063.125,1698.7937 C1063.125,1698.7937 1063.125,1698.7937 5127.1875,1698.7937 C5624.4563,1698.7937 5772.7688,1722.4937 6234.375,1537.5437 C6342.1406,1494.3719 6450.7922,1422.3859 6533.3508,1360.4078 C6574.6301,1329.4187 6609.3861,1300.9316 6634.2466,1279.7992 C6640.4617,1274.5161 6646.0583,1269.6927 6650.9838,1265.4047 C6653.4465,1263.2607 6655.7415,1261.2506 6657.862,1259.3839 C6658.1271,1259.1505 6649.9502,1266.3586 6650.2098,1266.1298" fill="none" id="USER-to-QUARTUS" style="stroke:#181818;stroke-width:4.6875;"/><polygon fill="#181818" points="6658.6491,1258.6906,6641.0307,1264.2232,6651.6164,1264.8899,6650.9497,1275.4756,6658.6491,1258.6906" style="stroke:#181818;stroke-width:4.6875;"/><text fill="#000000" font-family="'Microsoft YaHei'" font-size="48.75" lengthAdjust="spacing" textLength="244.6783" x="2762.8125" y="1673.5014">&#32534;&#35793; / &#19979;&#36733;</text></g><!--link FS to BUILD--><g class="link" data-entity-1="FS" data-entity-2="BUILD" data-source-line="54" data-uid="lnk37" id="link_FS_BUILD"><path d="M5603.4375,1100.6687 C5835.9188,1100.6687 6099.4313,1100.6687 6312.6563,1100.6687" fill="none" id="FS-to-BUILD" style="stroke:#181818;stroke-width:4.6875;"/><polygon fill="#181818" points="6323.9063,1100.6687,6307.0313,1093.1687,6314.5313,1100.6687,6307.0313,1108.1687,6323.9063,1100.6687" style="stroke:#181818;stroke-width:4.6875;"/><text fill="#000000" font-family="'Microsoft YaHei'" font-size="48.75" lengthAdjust="spacing" textLength="359.8645" x="5863.125" y="1075.3764">&#24037;&#31243;&#25991;&#20214; + HDL</text></g><!--link BUILD to SOF--><g class="link" data-entity-1="BUILD" data-entity-2="SOF" data-source-line="55" data-uid="lnk38" id="link_BUILD_SOF"><path d="M7031.3438,1100.6687 C7117.65,1100.6687 7197.7313,1100.6687 7280.4188,1100.6687" fill="none" id="BUILD-to-SOF" style="stroke:#181818;stroke-width:4.6875;"/><polygon fill="#181818" points="7291.6688,1100.6687,7274.7938,1093.1687,7282.2938,1100.6687,7274.7938,1108.1687,7291.6688,1100.6687" style="stroke:#181818;stroke-width:4.6875;"/><text fill="#000000" font-family="'Microsoft YaHei'" font-size="48.75" lengthAdjust="spacing" textLength="194.1193" x="7065" y="1075.3764">&#29983;&#25104; .sof</text></g><!--link SOF to FPGA--><g class="link" data-entity-1="SOF" data-entity-2="FPGA" data-source-line="56" data-uid="lnk39" id="link_SOF_FPGA"><path d="M7863.8625,1100.6687 C7945.7813,1100.6687 8038.1602,1100.6687 8130.7696,1100.6687 C8177.0744,1100.6687 8223.4367,1100.6687 8268.5781,1100.6687 C8279.8634,1100.6687 8291.0724,1100.6687 8302.1851,1100.6687 C8304.9633,1100.6687 8296.4855,1100.6687 8299.2513,1100.6687" fill="none" id="SOF-to-FPGA" style="stroke:#181818;stroke-width:4.6875;"/><polygon fill="#181818" points="8310.5013,1100.6687,8293.6263,1093.1687,8301.1263,1100.6687,8293.6263,1108.1687,8310.5013,1100.6687" style="stroke:#181818;stroke-width:4.6875;"/><text fill="#000000" font-family="'Microsoft YaHei'" font-size="48.75" lengthAdjust="spacing" textLength="286.9537" x="7966.875" y="1075.3764">&#19979;&#36733;&#21040; FPGA</text></g><!--link BTN to HW--><g class="link" data-entity-1="BTN" data-entity-2="HW" data-source-line="57" data-uid="lnk40" id="link_BTN_HW"><path d="M9036,800.6687 C9091.3125,800.6687 9136.4813,800.6687 9189.1875,800.6687" fill="none" id="BTN-to-HW" style="stroke:#181818;stroke-width:4.6875;"/><polygon fill="#181818" points="9200.4375,800.6687,9183.5625,793.1687,9191.0625,800.6687,9183.5625,808.1687,9200.4375,800.6687" style="stroke:#181818;stroke-width:4.6875;"/><text fill="#000000" font-family="'Microsoft YaHei'" font-size="48.75" lengthAdjust="spacing" textLength="97.5" x="9069.375" y="775.3764">&#36755;&#20837;</text></g><!--link HW to LCD--><g class="link" data-entity-1="HW" data-entity-2="LCD" data-source-line="58" data-uid="lnk41" id="link_HW_LCD"><path d="M9705.2625,865.15 C9712.1063,866.2375 9718.8938,867.25 9725.625,868.1687 C9837.3187,883.2812 9952.2188,886.9521 10053.2813,886.6521" fill="none" id="HW-to-LCD" style="stroke:#181818;stroke-width:4.6875;"/><polygon fill="#181818" points="10064.5313,886.6187,10047.6341,879.1689,10055.1563,886.6466,10047.6786,894.1688,10064.5313,886.6187" style="stroke:#181818;stroke-width:4.6875;"/><text fill="#000000" font-family="'Microsoft YaHei'" font-size="48.75" lengthAdjust="spacing" textLength="292.5" x="9738.75" y="842.8764">&#35889;&#38754;&#28378;&#21160;&#26174;&#31034;</text></g><!--link HW to SEG--><g class="link" data-entity-1="HW" data-entity-2="SEG" data-source-line="59" data-uid="lnk42" id="link_HW_SEG"><path d="M9705.525,774.2125 C9858.7312,758.0312 10034.8371,739.4491 10146.2683,727.6928" fill="none" id="HW-to-SEG" style="stroke:#181818;stroke-width:4.6875;"/><polygon fill="#181818" points="10157.4563,726.5125,10139.8875,720.8244,10148.133,727.4961,10141.4613,735.7416,10157.4563,726.5125" style="stroke:#181818;stroke-width:4.6875;"/><text fill="#000000" font-family="'Microsoft YaHei'" font-size="48.75" lengthAdjust="spacing" textLength="260.0079" x="9755.625" y="715.3764">&#20998;&#25968; + &#21028;&#23450;</text></g><!--SRC=[TLPjKnDN5Fw-l-9E-YNea1KeIfcECp790XrU8WawJjDXbjsRP6LpTzqNDMsTILKKH0rMfHMm3bGgZZE0jLNAc__5PZV9f_w5dhjt4pOqXPbiSi-vvpxddESyTot5KZ5oItkLWyVEpBlgkxr_zfSkuYdap3rm5XvMtsoXphFel2qQbctIhq9o8CgPqmhHHKCie2bHciuPcatacAPg1lfCyFu27cPUbBLh2icXhAYQE62HTGLrzPqAhk2iQAkMe15hL2nW51fH94CpjQo5Bec3M0crzqqftsBKVJfWJDEqcgQUlhOcgmYfJscg7B1wgKYQGR21khe31bsKPPf4y9IeOMZNqdb5cYROD55tfBTbWpGjvZ0xnS2I9PAS6anVqWgwHd03I3iNeidOn3hg3Y8nH3BjBweOAcDfo51oUGl92esXQ8GJ9Gjw4Qe-sN1dFsH8sDalEUL7jT8CNttusjbytn52eeacKebnZXw1GiaOuf7xPxdsQjPvjk5POUax3XsXH26W1EL36EZHaI5P0sg8YSmhHCRN8tche0OMHLsFN3QzG4B2OqLVeekxmVbLWM2CNE5aqSfh1EAPsBYAZOXUHE71T3g9Jg8yLdLic0piEOYIw16wXVXnMAaBuv1YSpk4IewbqeYNya3QIKno2i6yRcWIzAYjBOUXswA59w6oibPezH69g1PDnUGDcpGi1TjKf4cpI2HULyNYzwQbwGtR5JOglAPZuW47U0tahRXZWz7nz6HYT61eD94XBOY2Fo0bIA_wv8Kxku0WHKNLSlpus4ZaQeQSHFMLKkst7zoVthlBVxYBs-XSSeJLYyM5olSaUeNUTYT7HwF3br93gSRPpKnRVxBpQuUFdRkxw4H4XndWuNdPXAvv9pNYG9PzGc_YYzQpHYPIGx79rANHM8OSgvlNBeWDJAiSlgg_U5TVUyJNxjrqvn-moDvU27jAE2D4WJooQ8bJeWdigQ_-LLtUT1VlLlRUWsPLzru0BJLZsWH-OM109_AICFal2UZ8MVyHiQvRA7moKj1xZdoEyjPiIxTXpmbgQrJwHEGgKF5OtJjHeyqZjedZefcFND6pVEIAcMMKXs88lO1QyEUh8Q19GobWp-Ny1FHWWlf5uLyuJkhg_c9jwn5VtTjt5cPvP-UMyxO4dzNTZpmqszajExDtt5yMs6XC30t76u4W31obP442KAX9HY-poQoYOfFFa2PeK5R6qJ41oikWnXFTdLrTlPxGGtDYHKa5J6Ze0agmhb23Dz5nuVFZi1kHKJYjwL3Zg2mRC7QJ0sp4D2D3pjlOnXdobItdS85k2Wkf4UegINR1LgaJ2f-BnM4fZQzRmx5uXfpfJE4SYXiAz869ok351WG0q9HE57BlpzMVR09kIGLPjdNUUy85H7W0Oa4vV3b9ZxOFu9-9kawVwlOywO-sdXueLhx4GDFb1WTqxlmwhyWo9j_OEboPdixIZwDrJx31b8pvXiO2Y6K_SkSUWsAZYI78erwQS-TVknkhpdwPTvT_1zftSE3rdr2WCnpLcgQ19aqZfjek-_pZWAh_PmecSdmN061d0bnFhcjR7zotDwbIRD-Yzyx3TQVyQmSx6ZoR8j6FQXyNQglt6N-vvdfd4owuE7UUEJFhA32GOMVviBQw0QDeseM2Q1GxFEHUVRsQJGoX-jfjkB_0jxdlw7nV3Y7qozlLXJiyqzFQzjlwypNEDxQ3q3BuB5hGo- -KFsV8-R1UtPXdikI9venpxpMbv8_GDDRera9223RfeAcLdVdQmO6Nbk_41hk_9InKO30-p36JruCnWKPXzmETQ8wkD57IOUttOpkps-pzZRAVxeKfWdw0jC-iS_2TBb6wmvfN67TloRctuVvyM7svsx1JhWCYwDxJRS3YpBvqDfT0EYpwAcLPMW5fMSevhs2eihzKELYfxEmwvIscPTMbsvzAAyxEJlrk6O7Jfz9pUEFaWZUUdmnu-Z2URhiFDY5KRUqDIyXPsM0i0YsibnRWmgXjxJdbnRzBDpbu-q0Kphy0]--></g></svg>